# xmcd
#
# Track frame offsets:
#	150
#	12641
#	25627
#	39225
#	53949
#	73105
#	83363
#	95839
#	102981
#	115956
#	131004
#	142413
#
# Disc length: 2053 seconds
#
# Revision: 1
# Processed by: cddbd v1.5.2PL0 Copyright (c) Steve Scherf et al.
# Submitted via: audiograbber 1.83.01
#
DISCID=a708030c
DTITLE=Jeff Gonzales - I Got Mine
DYEAR=1900
DGENRE=Blues
TTITLE0=I Got Mine
TTITLE1=Doing a Stretch
TTITLE2=Basin Street Blues
TTITLE3=Chump Man Blues
TTITLE4=Know You Rider
TTITLE5=Oh Papa Blues
TTITLE6=Frankie and Albert
TTITLE7=Biscuits
TTITLE8=That'll Never Happen No More
TTITLE9=Nobody Knows You When You're Down and Out
TTITLE10=San Francisco Bay Blues
TTITLE11=Doctor Jazz
EXTD=
EXTT0=
EXTT1=
EXTT2=
EXTT3=
EXTT4=
EXTT5=
EXTT6=
EXTT7=
EXTT8=
EXTT9=
EXTT10=
EXTT11=
PLAYORDER=
